{
  "accessors": [
    {
      "bufferView": 2,
      "componentType": 5126,
      "count": 12926,
      "max": [
        0.17151199281215668,
        0.05180199816823006,
        0.14741000533103943
      ],
      "min": [
        -0.14105400443077087,
        -0.06006700173020363,
        -0.0009379999828524888
      ],
      "type": "VEC3"
    },
    {
      "bufferView": 2,
      "byteOffset": 155112,
      "componentType": 5126,
      "count": 12926,
      "max": [
        0.9998075366020203,
        0.9999852180480957,
        0.9999126195907593
      ],
      "min": [
        -0.9999457597732544,
        -0.999962329864502,
        -0.9999996423721313
      ],
      "type": "VEC3"
    },
    {
      "bufferView": 3,
      "componentType": 5126,
      "count": 12926,
      "max": [
        0.9999867677688599,
        0.9998305439949036,
        0.9999582171440125,
        1.0
      ],
      "min": [
        -0.9999698400497437,
        -0.9999347925186157,
        -0.9999514818191528,
        -1.0
      ],
      "type": "VEC4"
    },
    {
      "bufferView": 1,
      "componentType": 5126,
      "count": 12926,
      "max": [
        0.9960939884185791,
        0.9601489901542664
      ],
      "min": [
        0.0039059999398887157,
        0.0039059999398887157
      ],
      "type": "VEC2"
    },
    {
      "bufferView": 0,
      "componentType": 5125,
      "count": 72720,
      "type": "SCALAR"
    }
  ],
  "asset": {
    "extras": {
      "author": "inciprocal (https://sketchfab.com/inciprocal)",
      "license": "CC-BY-4.0 (http://creativecommons.org/licenses/by/4.0/)",
      "source": "https://sketchfab.com/3d-models/salomon-x-ultra-04w-2734560ce87a4f93bd64c61329257070",
      "title": "Salomon X Ultra 04W"
    },
    "generator": "Sketchfab-11.33.0",
    "version": "2.0"
  },
  "bufferViews": [
    {
      "buffer": 0,
      "byteLength": 290880,
      "name": "floatBufferViews",
      "target": 34963
    },
    {
      "buffer": 0,
      "byteLength": 103408,
      "byteOffset": 290880,
      "byteStride": 8,
      "name": "floatBufferViews",
      "target": 34962
    },
    {
      "buffer": 0,
      "byteLength": 310224,
      "byteOffset": 394288,
      "byteStride": 12,
      "name": "floatBufferViews",
      "target": 34962
    },
    {
      "buffer": 0,
      "byteLength": 206816,
      "byteOffset": 704512,
      "byteStride": 16,
      "name": "floatBufferViews",
      "target": 34962
    }
  ],
  "buffers": [
    {
      "byteLength": 911328,
      "uri": "scene.bin"
    }
  ],
  "extensionsRequired": [
    "KHR_materials_pbrSpecularGlossiness"
  ],
  "extensionsUsed": [
    "KHR_materials_pbrSpecularGlossiness"
  ],
  "images": [
    {
      "uri": "textures/sh_salomonUltra_diffuse.jpeg"
    },
    {
      "uri": "textures/sh_salomonUltra_specularGlossiness.png"
    },
    {
      "uri": "textures/sh_salomonUltra_normal.jpeg"
    },
    {
      "uri": "textures/sh_salomonUltra_occlusion.png"
    }
  ],
  "materials": [
    {
      "doubleSided": true,
      "extensions": {
        "KHR_materials_pbrSpecularGlossiness": {
          "diffuseFactor": [
            1.0,
            1.0,
            1.0,
            1.0
          ],
          "diffuseTexture": {
            "index": 0
          },
          "glossinessFactor": 1.0,
          "specularFactor": [
            0.35,
            0.35,
            0.35
          ],
          "specularGlossinessTexture": {
            "index": 1
          }
        }
      },
      "name": "sh_salomonUltra",
      "normalTexture": {
        "index": 2
      },
      "occlusionTexture": {
        "index": 3
      }
    }
  ],
  "meshes": [
    {
      "name": "Object_0",
      "primitives": [
        {
          "attributes": {
            "NORMAL": 1,
            "POSITION": 0,
            "TANGENT": 2,
            "TEXCOORD_0": 3
          },
          "indices": 4,
          "material": 0,
          "mode": 4
        }
      ]
    }
  ],
  "nodes": [
    {
      "children": [
        1
      ],
      "matrix": [
        0.8747625350952148,
        -1.0759213004604606e-16,
        0.48455187678337097,
        0.0,
        0.48455187678337097,
        1.9423630150843581e-16,
        -0.8747625350952148,
        0.0,
        0.0,
        1.0,
        2.220446049250313e-16,
        0.0,
        -0.02598271705210209,
        -4.619759053355582e-18,
        0.020805545151233673,
        1.0
      ],
      "name": "Sketchfab_model"
    },
    {
      "children": [
        2
      ],
      "name": "sh_salomonUltra.obj.cleaner.materialmerger.gles"
    },
    {
      "mesh": 0,
      "name": "Object_2"
    }
  ],
  "samplers": [
    {
      "magFilter": 9729,
      "minFilter": 9987,
      "wrapS": 10497,
      "wrapT": 10497
    }
  ],
  "scene": 0,
  "scenes": [
    {
      "name": "Sketchfab_Scene",
      "nodes": [
        0
      ]
    }
  ],
  "textures": [
    {
      "sampler": 0,
      "source": 0
    },
    {
      "sampler": 0,
      "source": 1
    },
    {
      "sampler": 0,
      "source": 2
    },
    {
      "sampler": 0,
      "source": 3
    }
  ]
}
